<svg id="Layer_1" data-name="Layer 1" xmlns="http://www.w3.org/2000/svg" viewBox="0 0 350.4 57.7"><defs><style>.cls-1{fill:#043d23;}.cls-2{fill:#e1b157;}</style></defs><path class="cls-1" d="M104.9.6h9.5L127.5,34,140.5.6H150L132.6,43H122.5Z"/><path class="cls-1" d="M192,21.2c0,1,0,1.9-.1,3H157.6c.9,7.7,6.7,12.2,13.5,12.2a15.21,15.21,0,0,0,12.2-5.6l5.3,4.5c-3.8,5.3-10.7,8.2-17.6,8.2a21.4,21.4,0,0,1-21.6-21.1v-.5C149.4,9.6,158.6.1,171,.1,183,.1,191.8,8.2,192,21.2Zm-34.2-2.8h26.4c-1.4-7.2-6.2-11.5-13.1-11.5S159,11.5,157.8,18.4Z"/><path class="cls-1" d="M195.7,32l7.5-2.4c2.1,5,6.4,6.9,11,6.9,5.7,0,9.3-2.6,9.3-6.7,0-6.6-11.4-3.7-19.2-6.9-3.7-1.5-6.9-4.4-6.9-10,0-7.1,7-12.9,16.1-12.9S228.2,4.8,230,11.1l-7.4,2.1c-1-3.6-3.8-6.5-8.9-6.5s-8.2,2.9-8.2,6.1c0,7.3,12.8,4.5,19.9,7.7,3.8,1.6,6.6,4.4,6.6,9.4,0,8.2-7.3,13.6-17.8,13.6C206.1,43.5,198.4,39.7,195.7,32Z"/><path class="cls-1" d="M235.1.6h8.4V6.3C246.8,2.5,251.1.1,258,.1c10.8,0,18.8,8.9,18.8,20.3s-8,20.2-18.8,20.2c-6.9,0-11.2-2.5-14.5-6.1V57.7h-8.4Zm33.4,19.8c0-7.4-5.3-13.1-12.4-13.1S243.6,13,243.6,20.4s5.4,13,12.5,13S268.5,27.7,268.5,20.4Z"/><path class="cls-1" d="M323,21.2c0,1,0,1.9-.1,3H288.6c.9,7.7,6.7,12.2,13.5,12.2a15.21,15.21,0,0,0,12.2-5.6l5.3,4.5c-3.8,5.3-10.7,8.2-17.6,8.2a21.4,21.4,0,0,1-21.6-21.1v-.5C280.4,9.6,289.6.1,302,.1,314,.1,322.8,8.2,323,21.2Zm-34.2-2.8h26.4c-1.4-7.2-6.2-11.5-13.1-11.5S290,11.5,288.8,18.4Z"/><path class="cls-1" d="M326.3,1.2h8.5V6.7c3.3-4.5,8.5-6.2,15.5-6.1v9a13.76,13.76,0,0,0-5.3-.9c-5.3,0-10.3,4.3-10.3,12.4V43h-8.5Z"/><polygon class="cls-2" points="32.4 0.6 32.4 38.9 0 0.6 32.4 0.6"/><polygon class="cls-2" points="96.4 0.6 48.2 57.7 32.4 38.9 64.7 0.6 96.4 0.6"/></svg>